{
  "run_dir": "/home/xinjie/Newton_Connection/Newton/phystwin_bridge/results/robot_rope_franka_semiimplicit_oneway/candidates/20260404_215523_c12_samehistory_oneway",
  "summary": {
    "actual_finger_box_clearance_min_m": -0.003924049437046051,
    "actual_finger_box_contact_started": true,
    "actual_finger_box_first_contact_frame": 50,
    "actual_finger_box_first_contact_time_s": 1.6675000000000002,
    "actual_finger_box_peak_source": "right_tip_box",
    "actual_left_finger_box_clearance_min_m": -0.0012956764549016953,
    "actual_left_tip_box_clearance_min_m": -0.0012956764549016953,
    "actual_right_finger_box_clearance_min_m": -0.003924049437046051,
    "actual_right_tip_box_clearance_min_m": -0.003924049437046051,
    "actual_tool_clearance_min_m": null,
    "actual_tool_collider_mode": null,
    "actual_tool_contact_started": false,
    "actual_tool_first_contact_frame": null,
    "actual_tool_first_contact_time_s": null,
    "actual_tool_peak_source": null,
    "anchor_constraint_mode": "free_tabletop_rope",
    "anchor_count": 4,
    "anchor_mass_mode": "preserve",
    "apply_drag": true,
    "camera_profile": "hero",
    "contact_active_frames": 89,
    "contact_duration_s": 2.9681500000000005,
    "contact_peak_frame": 138,
    "contact_peak_proxy": "right_tip_box",
    "contact_phase_count": 89,
    "contact_proxy_counts": {
      "left_tip_box": 39,
      "right_tip_box": 50
    },
    "contact_proxy_mode": "min(gripper_center,left_finger,right_finger,finger_span)",
    "contact_proxy_radii_m": {
      "finger_span": 0.033,
      "gripper_center": 0.033,
      "left_finger": 0.033,
      "right_finger": 0.033
    },
    "contact_proxy_radius_m": 0.033,
    "contact_started": true,
    "drag_ignore_gravity_axis": true,
    "drag_phase_gating": "always_on_quasi_static",
    "early_fall_acceleration_estimate_m_s2": null,
    "early_fall_com_horizontal_velocity_m_s": null,
    "ee_body_index": 6,
    "finger_span_clearance_min_m": -0.012806383892893791,
    "first_contact_frame": 50,
    "first_contact_phase": "approach",
    "first_contact_time_s": 1.6675000000000002,
    "first_ground_contact_frame": 50,
    "first_ground_contact_time_s": 1.6675000000000002,
    "frame_dt": 0.033350000000000005,
    "frames": 187,
    "gravity_mag_m_s2": 9.8,
    "gripper_center_clearance_min_m": -0.011853065341711044,
    "gripper_center_path_length_m": 0.32899802923202515,
    "gripper_center_speed_during_contact_mean_m_s": 0.05030057579278946,
    "gripper_center_speed_max_m_s": 0.10055076330900192,
    "gripper_center_speed_pre_contact_mean_m_s": null,
    "gripper_center_speed_release_mean_m_s": null,
    "gripper_center_tracking_error_during_contact_mean_m": 2.5099436697928468e-06,
    "gripper_center_tracking_error_max_m": 5.0786734391294885e-06,
    "gripper_center_tracking_error_mean_m": 2.638633532114909e-06,
    "gripper_center_tracking_error_pre_contact_mean_m": null,
    "gripper_center_tracking_error_release_mean_m": null,
    "ground_z_m": 0.0,
    "history_storage_files": {
      "body_q": "/home/xinjie/Newton_Connection/Newton/phystwin_bridge/results/robot_rope_franka_semiimplicit_oneway/candidates/20260404_215523_c12_samehistory_oneway/presentation/work/robot_rope_tabletop_hero_body_q.npy",
      "body_vel": "/home/xinjie/Newton_Connection/Newton/phystwin_bridge/results/robot_rope_franka_semiimplicit_oneway/candidates/20260404_215523_c12_samehistory_oneway/presentation/work/robot_rope_tabletop_hero_body_vel.npy",
      "ee_target_pos": "/home/xinjie/Newton_Connection/Newton/phystwin_bridge/results/robot_rope_franka_semiimplicit_oneway/candidates/20260404_215523_c12_samehistory_oneway/presentation/work/robot_rope_tabletop_hero_ee_target_pos.npy",
      "particle_q_all": "/home/xinjie/Newton_Connection/Newton/phystwin_bridge/results/robot_rope_franka_semiimplicit_oneway/candidates/20260404_215523_c12_samehistory_oneway/presentation/work/robot_rope_tabletop_hero_particle_q_all.npy",
      "particle_q_object": "/home/xinjie/Newton_Connection/Newton/phystwin_bridge/results/robot_rope_franka_semiimplicit_oneway/candidates/20260404_215523_c12_samehistory_oneway/presentation/work/robot_rope_tabletop_hero_particle_q_object.npy"
    },
    "history_storage_mode": "loaded_history_materialized",
    "ik_target_blend": 0.2,
    "impact_speed_before_first_contact_m_s": 0.001182263044045604,
    "ir_path": "/home/xinjie/Newton_Connection/Newton/phystwin_bridge/ir/rope_double_hand/phystwin_ir_v2_bf_strict.npz",
    "last_contact_frame": 161,
    "last_contact_time_s": 5.369350000000001,
    "left_finger_clearance_min_m": -0.009288690984249115,
    "min_clearance_final_m": 0.06151480972766876,
    "min_clearance_min_m": -0.003924049437046051,
    "output_mp4": "/home/xinjie/Newton_Connection/Newton/phystwin_bridge/results/robot_rope_franka_semiimplicit_oneway/candidates/20260404_215523_c12_samehistory_oneway/presentation/work/robot_rope_tabletop_hero.mp4",
    "particle_contact_kernel": false,
    "particle_contacts": false,
    "particle_radius_mean_m": 0.02600238099694252,
    "particle_radius_render_mean_m": 0.025999996811151505,
    "particle_radius_scale": 1.0,
    "particle_radius_vis_min": 0.026,
    "particle_radius_vis_scale": 1.0,
    "physics_validation_path": "/home/xinjie/Newton_Connection/Newton/phystwin_bridge/results/robot_rope_franka_semiimplicit_oneway/candidates/20260404_215523_c12_samehistory_oneway/presentation/physics_validation.json",
    "post_release_horizontal_kick_m_s": null,
    "post_release_horizontal_kick_window_s": 0.08,
    "post_release_spring_energy_proxy": null,
    "pre_release_settle_damping_scale": 8.0,
    "pre_release_spring_energy_proxy": null,
    "preroll_frame_count": 31,
    "preroll_settle_metrics": {
      "com_horizontal_speed_max_m_s": 0.005902571603655815,
      "com_horizontal_speed_threshold_m_s": 0.05,
      "particle_speed_mean_max_m_s": 0.015034191310405731,
      "particle_speed_mean_threshold_m_s": 0.08,
      "support_patch_speed_mean_max_m_s": 0.016838066279888153,
      "support_patch_speed_threshold_m_s": 0.02,
      "window_duration_s": 0.20010000000000003,
      "window_end_frame": 30,
      "window_start_frame": 25
    },
    "preroll_settle_pass": true,
    "preroll_settle_time_s": 1.0005000000000002,
    "proxy_contact_counts": {
      "finger_span": 89
    },
    "recommended_hero_camera": {
      "fov": 36.0,
      "pitch": -22.0,
      "pos": [
        1.1366671323776245,
        -0.8425257205963135,
        0.8219413757324219
      ],
      "target": [
        0.020126154646277428,
        -0.14483344554901123,
        0.2900000214576721
      ],
      "yaw": 148.0
    },
    "recommended_validation_camera": {
      "fov": 38.0,
      "pitch": -23.0,
      "pos": [
        1.4288767576217651,
        -0.7858306169509888,
        0.9464282989501953
      ],
      "target": [
        0.016126153990626335,
        -0.1568334400653839,
        0.2900000214576721
      ],
      "yaw": 156.0
    },
    "release_frame": null,
    "release_time_s": null,
    "render_mode": "presentation",
    "replay_source": null,
    "right_finger_clearance_min_m": 0.0010530464351177216,
    "robot_geometry": "native_franka",
    "robot_motion_mode": "ik",
    "rope_com_displacement_m": 0.027359047904610634,
    "rope_com_horizontal_speed_mean_pre_release_m_s": null,
    "rope_com_z_min_m": 0.23496577143669128,
    "rope_mid_segment_final_z_delta_m": -0.0027179569005966187,
    "rope_mid_segment_peak_frame": 0,
    "rope_mid_segment_peak_z_delta_m": 0.00018437206745147705,
    "rope_min_z_m": 0.22118356823921204,
    "rope_particle_speed_mean_pre_release_m_s": null,
    "rope_surface_clearance_min_m": 0.19518119096755981,
    "rope_surface_clearance_to_table_min_m": -0.004818812012672424,
    "rope_total_mass": 3.0,
    "settle_gate_frame": null,
    "settle_gate_metrics": {},
    "settle_gate_pass": null,
    "settle_window_seconds": 0.08,
    "sim_dt": 5e-05,
    "solver_joint_attach_kd": 100.0,
    "solver_joint_attach_ke": 10000.0,
    "substeps": 667,
    "support_contact_active_frames": 89,
    "support_contact_duration_s": 2.9681500000000005,
    "support_contact_peak_frame": 138,
    "support_contact_proxy_counts": {
      "left_tip_box": 39,
      "right_tip_box": 50
    },
    "support_contact_proxy_mode": "actual_finger_boxes",
    "support_first_contact_frame": 50,
    "support_last_contact_frame": 161,
    "support_patch_center_m": [
      -0.00045183487236499786,
      0.0005746865645051003,
      0.24505753815174103
    ],
    "support_patch_indices": [
      0,
      3,
      1645,
      1752
    ],
    "support_patch_speed_mean_pre_release_m_s": null,
    "t_release_s": null,
    "table_contact_active_frames": 187,
    "table_contact_duration_s": 6.2364500000000005,
    "table_contact_peak_frame": 137,
    "table_top_z_m": 0.2,
    "tabletop_approach_clearance_z": 0.1,
    "tabletop_contact_clearance_z": 0.01,
    "tabletop_control_mode": "joint_trajectory",
    "tabletop_ee_offset_z": 0.22,
    "tabletop_initial_pose": "tabletop_curve",
    "tabletop_push_clearance_z": 0.008,
    "tabletop_retract_clearance_z": 0.05,
    "tabletop_robot_base_offset": [
      -0.5600000023841858,
      -0.2199999988079071,
      0.10000000149011612
    ],
    "tabletop_rope_height": 0.156,
    "tabletop_rope_top_z": 0.25600475826859476,
    "tabletop_target_z": {
      "contact_ready": 0.26600475826859477,
      "push": 0.26400475826859476,
      "retract": 0.30600475826859475,
      "settle": 0.3560047582685948
    },
    "task": "tabletop_push_hero",
    "task_duration_s": 6.2,
    "task_phase_sequence": [
      "settle",
      "approach",
      "push",
      "hold",
      "retract"
    ],
    "video_slowdown": 1.0,
    "visible_support_center_m": [
      -0.00045183487236499786,
      0.0005746865645051003,
      0.24505753815174103
    ],
    "visible_tool_axis": "z",
    "visible_tool_body_index": null,
    "visible_tool_body_label": null,
    "visible_tool_enabled": false,
    "visible_tool_half_height_m": null,
    "visible_tool_mode": "none",
    "visible_tool_offset_local": null,
    "visible_tool_radius_m": null,
    "visible_tool_shape_index": null,
    "visible_tool_shape_label": null,
    "visible_tool_total_length_m": null,
    "wall_time_sec": 77.01216260599904
  },
  "summary_path": "/home/xinjie/Newton_Connection/Newton/phystwin_bridge/results/robot_rope_franka_semiimplicit_oneway/candidates/20260404_215523_c12_samehistory_oneway/summary.json",
  "videos": [
    {
      "decode_log_path": "/home/xinjie/Newton_Connection/Newton/phystwin_bridge/results/robot_rope_franka_semiimplicit_oneway/candidates/20260404_215523_c12_samehistory_oneway/qa/hero_presentation_decode.log",
      "ffprobe": {
        "format": {
          "bit_rate": "880807",
          "duration": "6.200000",
          "filename": "/home/xinjie/Newton_Connection/Newton/phystwin_bridge/results/robot_rope_franka_semiimplicit_oneway/candidates/20260404_215523_c12_samehistory_oneway/hero_presentation.mp4",
          "format_long_name": "QuickTime / MOV",
          "format_name": "mov,mp4,m4a,3gp,3g2,mj2",
          "nb_programs": 0,
          "nb_streams": 1,
          "probe_score": 100,
          "size": "682626",
          "start_time": "0.000000",
          "tags": {
            "compatible_brands": "isomiso2avc1mp41",
            "encoder": "Lavf60.16.100",
            "major_brand": "isom",
            "minor_version": "512"
          }
        },
        "streams": [
          {
            "avg_frame_rate": "30/1",
            "bit_rate": "876850",
            "bits_per_raw_sample": "8",
            "chroma_location": "left",
            "closed_captions": 0,
            "codec_long_name": "H.264 / AVC / MPEG-4 AVC / MPEG-4 part 10",
            "codec_name": "h264",
            "codec_tag": "0x31637661",
            "codec_tag_string": "avc1",
            "codec_type": "video",
            "coded_height": 720,
            "coded_width": 1280,
            "disposition": {
              "attached_pic": 0,
              "captions": 0,
              "clean_effects": 0,
              "comment": 0,
              "default": 1,
              "dependent": 0,
              "descriptions": 0,
              "dub": 0,
              "forced": 0,
              "hearing_impaired": 0,
              "karaoke": 0,
              "lyrics": 0,
              "metadata": 0,
              "non_diegetic": 0,
              "original": 0,
              "still_image": 0,
              "timed_thumbnails": 0,
              "visual_impaired": 0
            },
            "duration": "6.200000",
            "duration_ts": 95232,
            "extradata_size": 46,
            "field_order": "progressive",
            "film_grain": 0,
            "has_b_frames": 2,
            "height": 720,
            "id": "0x1",
            "index": 0,
            "is_avc": "true",
            "level": 31,
            "nal_length_size": "4",
            "nb_frames": "186",
            "pix_fmt": "yuv420p",
            "profile": "High",
            "r_frame_rate": "30/1",
            "refs": 1,
            "start_pts": 0,
            "start_time": "0.000000",
            "tags": {
              "encoder": "Lavc60.31.102 libx264",
              "handler_name": "VideoHandler",
              "language": "und",
              "vendor_id": "[0][0][0][0]"
            },
            "time_base": "1/15360",
            "width": 1280
          }
        ]
      },
      "ffprobe_path": "/home/xinjie/Newton_Connection/Newton/phystwin_bridge/results/robot_rope_franka_semiimplicit_oneway/candidates/20260404_215523_c12_samehistory_oneway/ffprobe/hero_presentation.json",
      "metrics": {
        "black_frame_fraction": 0.0,
        "contact_sheet_path": "/home/xinjie/Newton_Connection/Newton/phystwin_bridge/results/robot_rope_franka_semiimplicit_oneway/candidates/20260404_215523_c12_samehistory_oneway/contact_sheets/hero_presentation.png",
        "decode_pass": true,
        "decoded_frame_count": 186,
        "duration_pass": true,
        "duration_s": 6.2,
        "encoded_fps": 30.0,
        "ffprobe_path": "/home/xinjie/Newton_Connection/Newton/phystwin_bridge/results/robot_rope_franka_semiimplicit_oneway/candidates/20260404_215523_c12_samehistory_oneway/ffprobe/hero_presentation.json",
        "fps_pass": true,
        "keyframe_paths": [
          "/home/xinjie/Newton_Connection/Newton/phystwin_bridge/results/robot_rope_franka_semiimplicit_oneway/candidates/20260404_215523_c12_samehistory_oneway/keyframes/hero_presentation_sample_01_frame_000000.png",
          "/home/xinjie/Newton_Connection/Newton/phystwin_bridge/results/robot_rope_franka_semiimplicit_oneway/candidates/20260404_215523_c12_samehistory_oneway/keyframes/hero_presentation_sample_02_frame_000062.png",
          "/home/xinjie/Newton_Connection/Newton/phystwin_bridge/results/robot_rope_franka_semiimplicit_oneway/candidates/20260404_215523_c12_samehistory_oneway/keyframes/hero_presentation_sample_03_frame_000123.png",
          "/home/xinjie/Newton_Connection/Newton/phystwin_bridge/results/robot_rope_franka_semiimplicit_oneway/candidates/20260404_215523_c12_samehistory_oneway/keyframes/hero_presentation_sample_04_frame_000185.png"
        ],
        "max_pair_diff": 0.9771527647972107,
        "max_static_run": 24,
        "mean_pair_diff": 0.39541216157502623,
        "median_pair_diff": 0.4152604043483734,
        "min_pair_diff": 0.0025868054945021868,
        "motion_pass": true,
        "name": "hero_presentation",
        "nb_frames": 186,
        "near_exact_repeat_fraction": 0.1945945945945946,
        "overall_pass": true,
        "path": "/home/xinjie/Newton_Connection/Newton/phystwin_bridge/results/robot_rope_franka_semiimplicit_oneway/candidates/20260404_215523_c12_samehistory_oneway/hero_presentation.mp4",
        "resolution_height": 720,
        "resolution_pass": true,
        "resolution_width": 1280,
        "sample_paths": [
          "/home/xinjie/Newton_Connection/Newton/phystwin_bridge/results/robot_rope_franka_semiimplicit_oneway/candidates/20260404_215523_c12_samehistory_oneway/keyframes/hero_presentation_sample_01_frame_000000.png",
          "/home/xinjie/Newton_Connection/Newton/phystwin_bridge/results/robot_rope_franka_semiimplicit_oneway/candidates/20260404_215523_c12_samehistory_oneway/keyframes/hero_presentation_sample_02_frame_000062.png",
          "/home/xinjie/Newton_Connection/Newton/phystwin_bridge/results/robot_rope_franka_semiimplicit_oneway/candidates/20260404_215523_c12_samehistory_oneway/keyframes/hero_presentation_sample_03_frame_000123.png",
          "/home/xinjie/Newton_Connection/Newton/phystwin_bridge/results/robot_rope_franka_semiimplicit_oneway/candidates/20260404_215523_c12_samehistory_oneway/keyframes/hero_presentation_sample_04_frame_000185.png"
        ],
        "sampled_indices": [
          0,
          62,
          123,
          185
        ],
        "scene_readable_pass": true
      },
      "name": "hero_presentation",
      "video_path": "/home/xinjie/Newton_Connection/Newton/phystwin_bridge/results/robot_rope_franka_semiimplicit_oneway/candidates/20260404_215523_c12_samehistory_oneway/hero_presentation.mp4"
    },
    {
      "decode_log_path": "/home/xinjie/Newton_Connection/Newton/phystwin_bridge/results/robot_rope_franka_semiimplicit_oneway/candidates/20260404_215523_c12_samehistory_oneway/qa/hero_debug_decode.log",
      "ffprobe": {
        "format": {
          "bit_rate": "850214",
          "duration": "6.200000",
          "filename": "/home/xinjie/Newton_Connection/Newton/phystwin_bridge/results/robot_rope_franka_semiimplicit_oneway/candidates/20260404_215523_c12_samehistory_oneway/hero_debug.mp4",
          "format_long_name": "QuickTime / MOV",
          "format_name": "mov,mp4,m4a,3gp,3g2,mj2",
          "nb_programs": 0,
          "nb_streams": 1,
          "probe_score": 100,
          "size": "658916",
          "start_time": "0.000000",
          "tags": {
            "compatible_brands": "isomiso2avc1mp41",
            "encoder": "Lavf60.16.100",
            "major_brand": "isom",
            "minor_version": "512"
          }
        },
        "streams": [
          {
            "avg_frame_rate": "30/1",
            "bit_rate": "846277",
            "bits_per_raw_sample": "8",
            "chroma_location": "left",
            "closed_captions": 0,
            "codec_long_name": "H.264 / AVC / MPEG-4 AVC / MPEG-4 part 10",
            "codec_name": "h264",
            "codec_tag": "0x31637661",
            "codec_tag_string": "avc1",
            "codec_type": "video",
            "coded_height": 720,
            "coded_width": 1280,
            "disposition": {
              "attached_pic": 0,
              "captions": 0,
              "clean_effects": 0,
              "comment": 0,
              "default": 1,
              "dependent": 0,
              "descriptions": 0,
              "dub": 0,
              "forced": 0,
              "hearing_impaired": 0,
              "karaoke": 0,
              "lyrics": 0,
              "metadata": 0,
              "non_diegetic": 0,
              "original": 0,
              "still_image": 0,
              "timed_thumbnails": 0,
              "visual_impaired": 0
            },
            "duration": "6.200000",
            "duration_ts": 95232,
            "extradata_size": 46,
            "field_order": "progressive",
            "film_grain": 0,
            "has_b_frames": 2,
            "height": 720,
            "id": "0x1",
            "index": 0,
            "is_avc": "true",
            "level": 31,
            "nal_length_size": "4",
            "nb_frames": "186",
            "pix_fmt": "yuv420p",
            "profile": "High",
            "r_frame_rate": "30/1",
            "refs": 1,
            "start_pts": 0,
            "start_time": "0.000000",
            "tags": {
              "encoder": "Lavc60.31.102 libx264",
              "handler_name": "VideoHandler",
              "language": "und",
              "vendor_id": "[0][0][0][0]"
            },
            "time_base": "1/15360",
            "width": 1280
          }
        ]
      },
      "ffprobe_path": "/home/xinjie/Newton_Connection/Newton/phystwin_bridge/results/robot_rope_franka_semiimplicit_oneway/candidates/20260404_215523_c12_samehistory_oneway/ffprobe/hero_debug.json",
      "metrics": {
        "black_frame_fraction": 0.0,
        "contact_sheet_path": "/home/xinjie/Newton_Connection/Newton/phystwin_bridge/results/robot_rope_franka_semiimplicit_oneway/candidates/20260404_215523_c12_samehistory_oneway/contact_sheets/hero_debug.png",
        "decode_pass": true,
        "decoded_frame_count": 186,
        "duration_pass": true,
        "duration_s": 6.2,
        "encoded_fps": 30.0,
        "ffprobe_path": "/home/xinjie/Newton_Connection/Newton/phystwin_bridge/results/robot_rope_franka_semiimplicit_oneway/candidates/20260404_215523_c12_samehistory_oneway/ffprobe/hero_debug.json",
        "fps_pass": true,
        "keyframe_paths": [
          "/home/xinjie/Newton_Connection/Newton/phystwin_bridge/results/robot_rope_franka_semiimplicit_oneway/candidates/20260404_215523_c12_samehistory_oneway/keyframes/hero_debug_sample_01_frame_000000.png",
          "/home/xinjie/Newton_Connection/Newton/phystwin_bridge/results/robot_rope_franka_semiimplicit_oneway/candidates/20260404_215523_c12_samehistory_oneway/keyframes/hero_debug_sample_02_frame_000062.png",
          "/home/xinjie/Newton_Connection/Newton/phystwin_bridge/results/robot_rope_franka_semiimplicit_oneway/candidates/20260404_215523_c12_samehistory_oneway/keyframes/hero_debug_sample_03_frame_000123.png",
          "/home/xinjie/Newton_Connection/Newton/phystwin_bridge/results/robot_rope_franka_semiimplicit_oneway/candidates/20260404_215523_c12_samehistory_oneway/keyframes/hero_debug_sample_04_frame_000185.png"
        ],
        "max_pair_diff": 2.1391146183013916,
        "max_static_run": 23,
        "mean_pair_diff": 0.4573366187462533,
        "median_pair_diff": 0.39482638239860535,
        "min_pair_diff": 0.0018923610914498568,
        "motion_pass": true,
        "name": "hero_debug",
        "nb_frames": 186,
        "near_exact_repeat_fraction": 0.1837837837837838,
        "overall_pass": true,
        "path": "/home/xinjie/Newton_Connection/Newton/phystwin_bridge/results/robot_rope_franka_semiimplicit_oneway/candidates/20260404_215523_c12_samehistory_oneway/hero_debug.mp4",
        "resolution_height": 720,
        "resolution_pass": true,
        "resolution_width": 1280,
        "sample_paths": [
          "/home/xinjie/Newton_Connection/Newton/phystwin_bridge/results/robot_rope_franka_semiimplicit_oneway/candidates/20260404_215523_c12_samehistory_oneway/keyframes/hero_debug_sample_01_frame_000000.png",
          "/home/xinjie/Newton_Connection/Newton/phystwin_bridge/results/robot_rope_franka_semiimplicit_oneway/candidates/20260404_215523_c12_samehistory_oneway/keyframes/hero_debug_sample_02_frame_000062.png",
          "/home/xinjie/Newton_Connection/Newton/phystwin_bridge/results/robot_rope_franka_semiimplicit_oneway/candidates/20260404_215523_c12_samehistory_oneway/keyframes/hero_debug_sample_03_frame_000123.png",
          "/home/xinjie/Newton_Connection/Newton/phystwin_bridge/results/robot_rope_franka_semiimplicit_oneway/candidates/20260404_215523_c12_samehistory_oneway/keyframes/hero_debug_sample_04_frame_000185.png"
        ],
        "sampled_indices": [
          0,
          62,
          123,
          185
        ],
        "scene_readable_pass": true
      },
      "name": "hero_debug",
      "video_path": "/home/xinjie/Newton_Connection/Newton/phystwin_bridge/results/robot_rope_franka_semiimplicit_oneway/candidates/20260404_215523_c12_samehistory_oneway/hero_debug.mp4"
    },
    {
      "decode_log_path": "/home/xinjie/Newton_Connection/Newton/phystwin_bridge/results/robot_rope_franka_semiimplicit_oneway/candidates/20260404_215523_c12_samehistory_oneway/qa/validation_camera_decode.log",
      "ffprobe": {
        "format": {
          "bit_rate": "790492",
          "duration": "6.200000",
          "filename": "/home/xinjie/Newton_Connection/Newton/phystwin_bridge/results/robot_rope_franka_semiimplicit_oneway/candidates/20260404_215523_c12_samehistory_oneway/validation_camera.mp4",
          "format_long_name": "QuickTime / MOV",
          "format_name": "mov,mp4,m4a,3gp,3g2,mj2",
          "nb_programs": 0,
          "nb_streams": 1,
          "probe_score": 100,
          "size": "612632",
          "start_time": "0.000000",
          "tags": {
            "compatible_brands": "isomiso2avc1mp41",
            "encoder": "Lavf60.16.100",
            "major_brand": "isom",
            "minor_version": "512"
          }
        },
        "streams": [
          {
            "avg_frame_rate": "30/1",
            "bit_rate": "786535",
            "bits_per_raw_sample": "8",
            "chroma_location": "left",
            "closed_captions": 0,
            "codec_long_name": "H.264 / AVC / MPEG-4 AVC / MPEG-4 part 10",
            "codec_name": "h264",
            "codec_tag": "0x31637661",
            "codec_tag_string": "avc1",
            "codec_type": "video",
            "coded_height": 720,
            "coded_width": 1280,
            "disposition": {
              "attached_pic": 0,
              "captions": 0,
              "clean_effects": 0,
              "comment": 0,
              "default": 1,
              "dependent": 0,
              "descriptions": 0,
              "dub": 0,
              "forced": 0,
              "hearing_impaired": 0,
              "karaoke": 0,
              "lyrics": 0,
              "metadata": 0,
              "non_diegetic": 0,
              "original": 0,
              "still_image": 0,
              "timed_thumbnails": 0,
              "visual_impaired": 0
            },
            "duration": "6.200000",
            "duration_ts": 95232,
            "extradata_size": 46,
            "field_order": "progressive",
            "film_grain": 0,
            "has_b_frames": 2,
            "height": 720,
            "id": "0x1",
            "index": 0,
            "is_avc": "true",
            "level": 31,
            "nal_length_size": "4",
            "nb_frames": "186",
            "pix_fmt": "yuv420p",
            "profile": "High",
            "r_frame_rate": "30/1",
            "refs": 1,
            "start_pts": 0,
            "start_time": "0.000000",
            "tags": {
              "encoder": "Lavc60.31.102 libx264",
              "handler_name": "VideoHandler",
              "language": "und",
              "vendor_id": "[0][0][0][0]"
            },
            "time_base": "1/15360",
            "width": 1280
          }
        ]
      },
      "ffprobe_path": "/home/xinjie/Newton_Connection/Newton/phystwin_bridge/results/robot_rope_franka_semiimplicit_oneway/candidates/20260404_215523_c12_samehistory_oneway/ffprobe/validation_camera.json",
      "metrics": {
        "black_frame_fraction": 0.0,
        "contact_sheet_path": "/home/xinjie/Newton_Connection/Newton/phystwin_bridge/results/robot_rope_franka_semiimplicit_oneway/candidates/20260404_215523_c12_samehistory_oneway/contact_sheets/validation_camera.png",
        "decode_pass": true,
        "decoded_frame_count": 186,
        "duration_pass": true,
        "duration_s": 6.2,
        "encoded_fps": 30.0,
        "ffprobe_path": "/home/xinjie/Newton_Connection/Newton/phystwin_bridge/results/robot_rope_franka_semiimplicit_oneway/candidates/20260404_215523_c12_samehistory_oneway/ffprobe/validation_camera.json",
        "fps_pass": true,
        "keyframe_paths": [
          "/home/xinjie/Newton_Connection/Newton/phystwin_bridge/results/robot_rope_franka_semiimplicit_oneway/candidates/20260404_215523_c12_samehistory_oneway/keyframes/validation_camera_sample_01_frame_000000.png",
          "/home/xinjie/Newton_Connection/Newton/phystwin_bridge/results/robot_rope_franka_semiimplicit_oneway/candidates/20260404_215523_c12_samehistory_oneway/keyframes/validation_camera_sample_02_frame_000062.png",
          "/home/xinjie/Newton_Connection/Newton/phystwin_bridge/results/robot_rope_franka_semiimplicit_oneway/candidates/20260404_215523_c12_samehistory_oneway/keyframes/validation_camera_sample_03_frame_000123.png",
          "/home/xinjie/Newton_Connection/Newton/phystwin_bridge/results/robot_rope_franka_semiimplicit_oneway/candidates/20260404_215523_c12_samehistory_oneway/keyframes/validation_camera_sample_04_frame_000185.png"
        ],
        "max_pair_diff": 0.7186979055404663,
        "max_static_run": 24,
        "mean_pair_diff": 0.3415122922434396,
        "median_pair_diff": 0.37189236283302307,
        "min_pair_diff": 0.0014756944729015231,
        "motion_pass": true,
        "name": "validation_camera",
        "nb_frames": 186,
        "near_exact_repeat_fraction": 0.1945945945945946,
        "overall_pass": true,
        "path": "/home/xinjie/Newton_Connection/Newton/phystwin_bridge/results/robot_rope_franka_semiimplicit_oneway/candidates/20260404_215523_c12_samehistory_oneway/validation_camera.mp4",
        "resolution_height": 720,
        "resolution_pass": true,
        "resolution_width": 1280,
        "sample_paths": [
          "/home/xinjie/Newton_Connection/Newton/phystwin_bridge/results/robot_rope_franka_semiimplicit_oneway/candidates/20260404_215523_c12_samehistory_oneway/keyframes/validation_camera_sample_01_frame_000000.png",
          "/home/xinjie/Newton_Connection/Newton/phystwin_bridge/results/robot_rope_franka_semiimplicit_oneway/candidates/20260404_215523_c12_samehistory_oneway/keyframes/validation_camera_sample_02_frame_000062.png",
          "/home/xinjie/Newton_Connection/Newton/phystwin_bridge/results/robot_rope_franka_semiimplicit_oneway/candidates/20260404_215523_c12_samehistory_oneway/keyframes/validation_camera_sample_03_frame_000123.png",
          "/home/xinjie/Newton_Connection/Newton/phystwin_bridge/results/robot_rope_franka_semiimplicit_oneway/candidates/20260404_215523_c12_samehistory_oneway/keyframes/validation_camera_sample_04_frame_000185.png"
        ],
        "sampled_indices": [
          0,
          62,
          123,
          185
        ],
        "scene_readable_pass": true
      },
      "name": "validation_camera",
      "video_path": "/home/xinjie/Newton_Connection/Newton/phystwin_bridge/results/robot_rope_franka_semiimplicit_oneway/candidates/20260404_215523_c12_samehistory_oneway/validation_camera.mp4"
    }
  ]
}